<?xml version="1.0" encoding="UTF-8"?>
<svg width="100" height="100" viewBox="0 0 100 100" fill="none" xmlns="http://www.w3.org/2000/svg">
  <circle cx="50" cy="50" r="48" fill="#4CAF50" fill-opacity="0.2" stroke="#4CAF50" stroke-width="4"/>
  <path d="M50 25C42.5 25 35 33 35 41.5C35 50 39 54 43 58C47 62 50 65 50 65C50 65 53 62 57 58C61 54 65 50 65 41.5C65 33 57.5 25 50 25Z" fill="#4CAF50"/>
  <path d="M50 32.5C46 32.5 42.5 36.5 42.5 41.5C42.5 46.5 44.5 49 47 51.5C49.5 54 51 56 51 56C51 56 52.5 54 55 51.5C57.5 49 59.5 46.5 59.5 41.5C59.5 36.5 56 32.5 52.5 32.5" fill="white"/>
  <path d="M50 70C60 70 62.5 72.5 72.5 72.5C82.5 72.5 85 67.5 87.5 67.5C90 67.5 90 70 90 72.5C90 75 87.5 75 85 77.5C82.5 80 80 82.5 72.5 82.5C65 82.5 57.5 80 50 80C42.5 80 35 82.5 27.5 82.5C20 82.5 17.5 80 15 77.5C12.5 75 10 75 10 72.5C10 70 10 67.5 12.5 67.5C15 67.5 17.5 72.5 27.5 72.5C37.5 72.5 40 70 50 70Z" fill="#8BC34A"/>
</svg>