<?xml version="1.0" encoding="UTF-8"?>
<svg width="200" height="200" viewBox="0 0 200 200" fill="none" xmlns="http://www.w3.org/2000/svg">
  <circle cx="100" cy="100" r="95" fill="#4CAF50" fill-opacity="0.2" stroke="#4CAF50" stroke-width="5"/>
  <path d="M100 50C85.5 50 69.5 66 69.5 82.5C69.5 99 77 107.5 85.5 115C94 122.5 100 130 100 130C100 130 106 122.5 114.5 115C123 107.5 130.5 99 130.5 82.5C130.5 66 114.5 50 100 50Z" fill="#4CAF50"/>
  <path d="M100 65C92.5 65 84.5 73 84.5 82.5C84.5 92 89 97.5 94 102C99 106.5 102.5 111 102.5 111C102.5 111 106 106.5 111 102C116 97.5 120.5 92 120.5 82.5C120.5 73 112.5 65 105 65" fill="white"/>
  <path d="M100 140C120 140 125 145 145 145C165 145 170 135 175 135C180 135 180 140 180 145C180 150 175 150 170 155C165 160 160 165 145 165C130 165 115 160 100 160C85 160 70 165 55 165C40 165 35 160 30 155C25 150 20 150 20 145C20 140 20 135 25 135C30 135 35 145 55 145C75 145 80 140 100 140Z" fill="#8BC34A"/>
</svg>